<?xml version="1.0" encoding="UTF-8"?><svg id="Layer_1" xmlns="http://www.w3.org/2000/svg" xmlns:xlink="http://www.w3.org/1999/xlink" viewBox="0 0 1920 2015.48"><defs><style>.cls-1,.cls-2{fill:none;}.cls-2{stroke:#2f2912;stroke-width:8px;}.cls-3{clip-path:url(#clippath);}.cls-4{fill:#fff;}.cls-5{fill:#ff0;}.cls-6{fill:#e1e1e1;}.cls-7{fill:#231f20;}.cls-8{clip-path:url(#clippath-1);}</style><clipPath id="clippath"><rect class="cls-1" x="774.33" y="1117.32" width="453.09" height="585.16"/></clipPath><clipPath id="clippath-1"><rect class="cls-1" x="774.33" y="1117.32" width="453.09" height="585.16"/></clipPath></defs><rect class="cls-6" width="1920" height="1608.48"/><rect class="cls-4" x="668.15" y="1473.48" width="270.29" height="135"/><rect class="cls-5" x="1216.44" y="1745.48" width="135" height="135"/><rect class="cls-5" x="938.44" y="1745.48" width="135" height="135"/><rect class="cls-5" x="803.44" y="1473.48" width="135" height="135"/><rect class="cls-6" x="668.44" y="1608.96" width="135" height="135"/><g class="cls-3"><line class="cls-2" x1="1225.2" y1="1236.97" x2="776.55" y2="1582.82"/></g><line class="cls-2" x1="995.88" y1="1186.74" x2="1086.86" y2="1586"/><g class="cls-8"><line class="cls-2" x1="864.04" y1="1700.78" x2="1176.33" y2="1119.01"/></g><rect class="cls-6" x="1073.44" y="1607.48" width="135" height="138"/><rect class="cls-6" x="1343.44" y="1745.48" width="135" height="135"/><rect class="cls-4" x="1208.44" y="1880.48" width="135" height="135"/><rect class="cls-6" x="1073.44" y="1880.48" width="135" height="135"/><rect class="cls-4" x="1216.44" y="1335.94" width="135" height="136"/><rect class="cls-5" x="533.15" y="1336.44" width="135" height="135"/><path class="cls-7" d="m694.35,1794.35h-16.5v-8.8c9.8-.3,17.8-4.2,19.4-14.3h10.3v71.8h-13.2v-48.7Z"/><path class="cls-7" d="m720.55,1825.75h12.9c.9,4.5,4.9,9,12.5,9,5,0,8.7-1.7,11.4-5.4,3-3.8,4.5-10,4.9-18.8h-.2c-4.4,5.7-10.3,9.2-18.2,9.2-13.8,0-24.9-10.4-24.9-24.7s11.3-24.8,26.8-24.8c7.7,0,14,2.4,18.6,6.3,7.4,6.1,10.3,16.1,10.3,30.8,0,13.1-2.6,23.6-9,30-4.6,4.8-11.1,7.4-19.4,7.4-14.7,0-24.4-8.5-25.7-19Zm40.4-30.8c0-8.6-6.5-14.6-14.9-14.6s-14.7,6.1-14.7,14.6,6.1,14.7,14.6,14.7c9,0,15-6,15-14.7Z"/><path class="cls-7" d="m782.05,1829.15h13.9v13.9h-13.9v-13.9Z"/><path class="cls-7" d="m852.65,1768.65h14.8l27.1,74.4h-14.8l-5.9-17.7h-28.2l-6,17.7h-14l27-74.4Zm-3.6,46.5h21.4l-5.7-17.2c-2.9-8.8-4.7-17.9-4.7-17.9h-.2s-2.5,10.8-4.9,17.9l-5.9,17.2Z"/><path class="cls-7" d="m900.94,1789.65h12.3v7.9h.3c3.8-6.1,9.1-9.3,16.6-9.3,13.9,0,23,11.2,23,28.2s-9,28.3-23.4,28.3c-7.1,0-12.9-3.1-16.2-8.5h-.3c.2,2,.4,5.4.4,10.4v14.3h-12.7v-71.3Zm39.3,27.1c0-10.6-4.3-18.2-13-18.2-9.6,0-14.1,8.1-14.1,18.2s4.4,17.9,14.2,17.9c8.4,0,12.9-7.4,12.9-17.9Z"/><path class="cls-7" d="m973.34,1799.25h.3c3.4-6.9,8.5-10.4,15.3-10.4,1.5,0,2.5.1,3.4.5v11.4h-.4c-1.2-.3-2.2-.4-3.5-.4-8.4-.1-14.7,5.6-14.7,15.9v26.8h-12.7v-53.4h12.3v9.6Z"/><path class="cls-7" d="m992.34,1853.75c3.8-1.1,6.4-4,6.4-10.1v-.6h-6.5v-13.9h13.9v13.8c0,10.9-5.6,16.1-13.8,17v-6.2Z"/><path class="cls-7" d="m1045.54,1823.35c6-6.7,14.5-11.7,21.5-16.3,6.6-4.2,10.5-7.6,10.5-14.1,0-7.1-4.6-11.9-12.2-11.9-4.2,0-7.3,1.3-9.5,3.8-2.5,2.7-3.6,6.5-3.6,11.6h-12.9c0-7.6,1.9-13,5.6-17.6,4.3-5.3,11.6-8.5,21.1-8.5,15.6,0,24.9,9.6,24.9,22.3,0,10.5-6,15.5-13.8,20.7-7.4,5.7-17.7,10.6-22,17.8v.5h35.2v11.4h-52.4c.3-8.7,3.1-14.6,7.6-19.7Z"/><path class="cls-7" d="m1098.84,1807.45c0-22.8,11.9-37.2,29.6-37.2s29.6,14.2,29.6,37.2-11.3,37.3-29.7,37.3-29.5-14.6-29.5-37.3Zm45.6,0c0-16-4.9-26.6-16-26.6s-16,10.5-16,26.6,5,26.5,16,26.5,16-10.3,16-26.5Z"/><path class="cls-7" d="m1171.64,1823.35c6-6.7,14.5-11.7,21.5-16.3,6.6-4.2,10.5-7.6,10.5-14.1,0-7.1-4.6-11.9-12.2-11.9-4.2,0-7.3,1.3-9.5,3.8-2.5,2.7-3.6,6.5-3.6,11.6h-12.9c0-7.6,1.9-13,5.6-17.6,4.3-5.3,11.6-8.5,21.1-8.5,15.6,0,24.9,9.6,24.9,22.3,0,10.5-6,15.5-13.8,20.7-7.4,5.7-17.7,10.6-22,17.8v.5h35.2v11.4h-52.4c.3-8.7,3.1-14.6,7.6-19.7Z"/><path class="cls-7" d="m1231.14,1838.45c-5.4-4.4-8.4-11-8.5-18.7h12.6c.4,8.6,5.8,14.5,16.2,14.5,8.5,0,14-4.3,14-12.4,0-7.6-5.6-11.5-15.4-11.5h-4.4v-9.5h4.1c8.9,0,13.8-3.8,13.8-10.3s-5.2-10.3-12.3-10.3c-9,0-13.7,5.9-13.9,13h-12.5c.2-13.2,9.9-23,26.7-23,14.3,0,25,7.4,25,19.8,0,7.7-4.8,12.2-12,14.6v.2c9.4,2.6,14.3,8.6,14.3,18,0,14.5-12.2,21.9-26.9,21.9-8.7,0-15.6-2.2-20.8-6.3Z"/><path class="cls-7" d="m528.16,1690.1c0-22.1,13.8-38.8,35.9-38.8,8.5,0,15.5,2.2,20.6,6.1,6,4.7,9.6,11.4,10.5,19.2h-13.8c-1.3-8-7.6-13.6-17.4-13.6-14.2,0-21.7,11.6-21.7,27.1s8.5,26.9,21.8,26.9c11.1,0,17.2-7.4,18-16.4h13.9c-.3,7.4-3.8,14.9-9,19.9-5.4,5.4-13,8.2-23,8.2-21.5,0-35.8-16.3-35.8-38.6Z"/><path class="cls-7" d="m616.46,1683.3h.3c3.4-6.9,8.5-10.4,15.3-10.4,1.5,0,2.5.1,3.4.5v11.4h-.4c-1.2-.3-2.2-.4-3.5-.4-8.4-.1-14.7,5.6-14.7,15.9v26.8h-12.7v-53.4h12.3v9.6Z"/><path class="cls-7" d="m642.56,1652.7h13v12.3h-13v-12.3Zm.2,21h12.7v53.4h-12.7v-53.4Z"/><path class="cls-7" d="m662.86,1673.7h8.2v-17h12.5v17h10.7v8.7h-10.7v29.9c0,3.9,2.1,5,5.7,5,1.3,0,3.1-.2,4.1-.4h.6v9.9c-2.1.4-5,.8-8.4.8-8.6,0-14.5-3.1-14.5-12.5v-32.7h-8.2v-8.7Z"/><path class="cls-7" d="m1220.86,1690.1c0-22.1,13.8-38.8,35.9-38.8,8.5,0,15.5,2.2,20.6,6.1,6,4.7,9.6,11.4,10.5,19.2h-13.8c-1.3-8-7.6-13.6-17.4-13.6-14.2,0-21.7,11.6-21.7,27.1s8.5,26.9,21.8,26.9c11.1,0,17.2-7.4,18-16.4h13.9c-.3,7.4-3.8,14.9-9,19.9-5.4,5.4-13,8.2-23,8.2-21.5,0-35.8-16.3-35.8-38.6Z"/><path class="cls-7" d="m1297.16,1652.7h12.8v74.4h-12.8v-74.4Z"/><path class="cls-7" d="m1355.06,1727.11v-7.6h-.2c-3.9,5.8-8.6,9-16.1,9-11.7,0-18.5-7.3-18.5-18.8v-36h12.7v34.2c0,6.3,3.6,10,10,10,7.2,0,11.8-5.5,11.8-12.9v-31.3h12.6v53.4h-12.3Z"/><path class="cls-7" d="m1390.55,1719.41h-.3v7.7h-12.3v-74.4h12.7v17.6c0,4.2-.2,8.5-.4,11.3h.3c3.5-5.6,8.9-9.3,16.5-9.3,13.7,0,22.9,11.2,22.9,28.2s-8.8,28.3-23,28.3c-7.1,0-13.2-3.1-16.4-9.4Zm26.5-19c0-10.5-4.3-18.2-12.8-18.2-9.7,0-14.1,8.1-14.1,18.3s4.9,17.9,14.1,17.9c8.5,0,12.8-7.3,12.8-18Z"/></svg>