<?xml version="1.0" encoding="UTF-8"?><svg id="Layer_1" xmlns="http://www.w3.org/2000/svg" xmlns:xlink="http://www.w3.org/1999/xlink" viewBox="0 0 1920 2102.55"><defs><style>.cls-1,.cls-2,.cls-3{fill:none;}.cls-2{stroke:#2f2912;stroke-width:8px;}.cls-4{clip-path:url(#clippath);}.cls-5{letter-spacing:0em;}.cls-6{letter-spacing:0em;}.cls-7{fill:#fff;}.cls-8{fill:#ff0;}.cls-9{fill:#c8c8c8;}.cls-10{clip-path:url(#clippath-1);}.cls-11{fill:#231f20;font-family:NHaasGroteskTXPro-65Md, 'Neue Haas Grotesk Text Pro';font-size:114px;font-weight:500;}.cls-12{letter-spacing:-.07em;}.cls-13{letter-spacing:-.02em;}.cls-14{letter-spacing:0em;}.cls-15{letter-spacing:4.95em;}.cls-3{stroke:#000;stroke-width:6px;}.cls-16{letter-spacing:0em;}.cls-17{letter-spacing:-.01em;}</style><clipPath id="clippath"><rect class="cls-1" x="774.33" y="1204.39" width="453.09" height="585.16"/></clipPath><clipPath id="clippath-1"><rect class="cls-1" x="774.33" y="1204.39" width="453.09" height="585.16"/></clipPath></defs><rect class="cls-9" width="1920" height="1695.55"/><rect class="cls-7" x="668.15" y="1560.55" width="270.29" height="135"/><rect class="cls-8" x="1216.44" y="1832.55" width="135" height="135"/><rect class="cls-8" x="938.44" y="1832.55" width="135" height="135"/><rect class="cls-8" x="803.44" y="1560.55" width="135" height="135"/><rect class="cls-9" y="1292.05" width="135" height="135"/><rect class="cls-9" x="668.44" y="1696.03" width="135" height="135"/><g class="cls-4"><line class="cls-2" x1="1225.2" y1="1324.04" x2="776.55" y2="1669.89"/></g><line class="cls-2" x1="995.88" y1="1273.81" x2="1086.86" y2="1673.07"/><g class="cls-10"><line class="cls-2" x1="864.04" y1="1787.85" x2="1176.33" y2="1206.08"/></g><text class="cls-11" transform="translate(613.94 1928.42)"><tspan class="cls-6" x="0" y="0">1</tspan><tspan class="cls-13" x="46.51" y="0">9</tspan><tspan class="cls-6" x="117.42" y="0">. A</tspan><tspan class="cls-17" x="251.93" y="0">p</tspan><tspan class="cls-12" x="320.45" y="0">r</tspan><tspan class="cls-5" x="357.04" y="0">, </tspan><tspan class="cls-14" x="410.73" y="0">2</tspan><tspan class="cls-13" x="479.13" y="0">0</tspan><tspan class="cls-6" x="554.49" y="0">2</tspan><tspan x="622.31" y="0">3</tspan></text><text class="cls-11" transform="translate(446.95 1806.47)"><tspan class="cls-17" x="0" y="0">Cr</tspan><tspan class="cls-6" x="128.59" y="0">it</tspan><tspan class="cls-15" x="196.42" y="0"> </tspan><tspan class="cls-5" x="789.67" y="0">C</tspan><tspan class="cls-16" x="874.38" y="0">lu</tspan><tspan x="966.71" y="0">b</tspan></text><rect class="cls-9" x="1073.44" y="1694.55" width="135" height="138"/><rect class="cls-9" x="1343.44" y="1832.55" width="135" height="135"/><rect class="cls-7" x="1208.44" y="1967.55" width="135" height="135"/><rect class="cls-9" x="1073.44" y="1967.55" width="135" height="135"/><rect class="cls-7" x="1216.44" y="1423.01" width="135" height="136"/><rect class="cls-3" x="1274.46" y="1490.26" width="135" height="136"/><rect class="cls-3" x="1409.46" y="1490.26" width="135" height="136"/><rect class="cls-3" x="1545.03" y="1490.26" width="135" height="136"/><rect class="cls-3" x="1274.74" y="1353.21" width="135" height="136"/><rect class="cls-3" x="1409.74" y="1353.21" width="135" height="136"/><rect class="cls-3" x="1545.31" y="1353.21" width="135" height="136"/><rect class="cls-3" x="1275.03" y="1216.17" width="135" height="136"/><rect class="cls-3" x="1410.03" y="1216.17" width="135" height="136"/><rect class="cls-3" x="1545.59" y="1216.17" width="135" height="136"/></svg>