<?xml version="1.0" encoding="UTF-8"?><svg id="Layer_1" xmlns="http://www.w3.org/2000/svg" xmlns:xlink="http://www.w3.org/1999/xlink" viewBox="0 0 1920 1115.76"><defs><style>.cls-1,.cls-2{fill:none;}.cls-2{stroke:#2f2912;stroke-width:8px;}.cls-3{clip-path:url(#clippath);}.cls-4{letter-spacing:0em;}.cls-5{fill:#fff;}.cls-6{fill:#ff0;}.cls-7{fill:#e1e1e1;}.cls-8{letter-spacing:0em;}.cls-9{clip-path:url(#clippath-1);}.cls-10{letter-spacing:-.07em;}.cls-11{letter-spacing:-.02em;}.cls-12{letter-spacing:-.02em;}.cls-13{letter-spacing:0em;}.cls-14{letter-spacing:4.95em;}.cls-15{letter-spacing:0em;}.cls-16{fill:#231f20;font-family:NHaasGroteskTXPro-65Md, 'Neue Haas Grotesk Text Pro';font-size:100px;font-weight:500;}</style><clipPath id="clippath"><rect class="cls-1" x="774.33" y="217.6" width="453.09" height="585.16"/></clipPath><clipPath id="clippath-1"><rect class="cls-1" x="774.33" y="217.6" width="453.09" height="585.16"/></clipPath></defs><rect class="cls-7" width="1920" height="708.76"/><rect class="cls-5" x="668.15" y="573.76" width="270.29" height="135"/><rect class="cls-6" x="1216.44" y="845.76" width="135" height="135"/><rect class="cls-6" x="938.44" y="845.76" width="135" height="135"/><rect class="cls-6" x="803.44" y="573.76" width="135" height="135"/><rect class="cls-7" x="668.44" y="709.24" width="135" height="135"/><g class="cls-3"><line class="cls-2" x1="1225.2" y1="337.25" x2="776.55" y2="683.1"/></g><line class="cls-2" x1="995.88" y1="287.02" x2="1086.86" y2="686.28"/><g class="cls-9"><line class="cls-2" x1="864.04" y1="801.06" x2="1176.33" y2="219.29"/></g><rect class="cls-7" x="1073.44" y="707.76" width="135" height="138"/><rect class="cls-7" x="1343.44" y="845.76" width="135" height="135"/><rect class="cls-5" x="1208.44" y="980.76" width="135" height="135"/><rect class="cls-7" x="1073.44" y="980.76" width="135" height="135"/><rect class="cls-5" x="1216.44" y="436.22" width="135" height="136"/><rect class="cls-6" x="533.15" y="436.72" width="135" height="135"/><text class="cls-16" transform="translate(675.94 941.63)"><tspan class="cls-4" x="0" y="0">1</tspan><tspan class="cls-12" x="40.8" y="0">9</tspan><tspan class="cls-4" x="103" y="0">. A</tspan><tspan class="cls-15" x="221" y="0">p</tspan><tspan class="cls-10" x="281.09" y="0">r</tspan><tspan class="cls-4" x="313.19" y="0">, </tspan><tspan class="cls-13" x="360.29" y="0">2</tspan><tspan class="cls-11" x="420.29" y="0">0</tspan><tspan class="cls-4" x="486.39" y="0">2</tspan><tspan x="545.89" y="0">3</tspan></text><text class="cls-16" transform="translate(525.95 825.69)"><tspan class="cls-15" x="0" y="0">Cr</tspan><tspan class="cls-8" x="112.8" y="0">it</tspan><tspan class="cls-14" x="172.3" y="0"> </tspan><tspan class="cls-4" x="692.7" y="0">C</tspan><tspan class="cls-15" x="767" y="0">lu</tspan><tspan x="847.99" y="0">b</tspan></text></svg>