<svg xmlns="http://www.w3.org/2000/svg" viewBox="0 0 255.9 255.9" style="enable-background:new 0 0 256 256" xml:space="preserve"><circle cx="128" cy="128" r="128" style="fill: var(--highlight)"/><path d="m220.8 133.9 2.7 1.2-.6 5.4-2.9.6-.4 3.6L235 141l.4-3.5-14.2-7-.4 3.4zm5.1 2.3 2.7 1.2c1.4.6 3.8 1.4 3.8 1.4s-1.9.1-4 .5l-2.9.6.4-3.7zM216.7 155.8l2.9.7 1.6-6.7 11.6 2.9.8-3.3-14.4-3.6zM212.3 166.8l2.7 1.1 2.6-6.4 11.1 4.5 1.3-3.1-13.8-5.6zM219 177.4c-2.6-1.6-4.5 0-6.6 2.1-1.6 1.6-2.5 2.5-3.6 1.8-1-.6-.8-2-.1-3.1 1-1.6 2.2-2.1 3.7-1.4l1.8-2.9c-2.8-1.6-5.7-.5-7.8 2.9-1.8 2.9-1.7 6 .9 7.6 2.7 1.7 4.7 0 6.6-1.9 1.7-1.7 2.6-2.7 3.6-2 .8.5.8 1.6.1 2.8-.8 1.3-1.8 1.7-2.9 1.2l-1.8 2.8c2.6 1.4 5.1.2 6.8-2.6 1.7-2.8 1.9-5.7-.7-7.3zM208.5 187.6c-3.4-2.9-7.8-2.7-10.6.6-1.3 1.6-1.9 3.1-1.8 4.7.1 1.4.7 2.8 1.8 3.9l2.2-2.6c-1.1-1.1-1.3-2.7-.1-4.1 1.5-1.8 4-1.6 6.2.2s2.9 4.1 1.3 6.1c-1.1 1.3-2.6 1.5-3.8.7l-2.2 2.6c1.4.9 3 1.3 4.6.9 1.2-.3 2.5-1.1 3.5-2.4 3-3.4 2.3-7.7-1.1-10.6zM190.2 196.6l4.1 4.9-4.3 3.6-4.1-4.8-2.6 2.2 9.6 11.3 2.6-2.2-3.7-4.3 4.3-3.7 3.7 4.4 2.6-2.2-9.6-11.4zM175.6 207.1c-3.8 2.4-4.5 6.7-2.1 10.5s6.5 5.1 10.3 2.7c3.8-2.4 4.5-6.7 2.1-10.5-2.3-3.8-6.5-5.1-10.3-2.7zm6.7 10.8c-2.2 1.4-4.4.2-5.9-2.2-1.5-2.4-1.5-4.9.6-6.2 2.2-1.4 4.4-.2 5.9 2.1 1.6 2.4 1.6 4.9-.6 6.3zM161.6 214c-4.2 1.7-5.5 5.8-3.9 9.9 1.7 4.1 5.6 6.1 9.7 4.4 4.2-1.7 5.6-5.8 3.9-10-1.6-4-5.5-6-9.7-4.3zm4.8 11.8c-2.4 1-4.4-.6-5.4-3.2-1.1-2.6-.7-5.1 1.7-6 2.4-1 4.4.5 5.5 3.1 1 2.6.6 5.2-1.8 6.1zM143.3 219.8l.7 2.8 6.7-1.6 2.8 11.6 3.3-.8-3.5-14.4zM140.2 220.1c-.2-1.2.3-2 1.2-2.4l-.2-1.4c-1.8.4-3.1 1.7-2.7 4.2l.4 3.1 3.3-.5-.5-3.2-1.5.2zM125.3 221c-1.6 0-2.8.4-3.7 1.1-.9.8-1.4 1.8-1.4 3.3 0 1.8 1.1 3.1 3 3.6v.1c-1.6.5-2.4 1.5-2.4 3 0 1.2.5 2.1 1.3 2.8.8.7 2 1 3.5 1l7-.1-.2-14.9-7.1.1zm-1.2 3.3c.4-.3.9-.6 1.6-.6h3.5v3.8h-3.4c-1.2 0-2.2-.6-2.2-1.9 0-.5.2-1 .5-1.3zm2 9c-1.2 0-1.9-.6-1.9-1.7s.8-1.7 1.9-1.7h3.2v3.3l-3.2.1zM115.2 220.3l-3.4-.5-.8 5.5-6.3 8.5 3.6.5 2-2.9c.9-1.3 2-3.3 2-3.3s.5 2.3 1 3.7l1.2 3.3 3.7.5-3.8-9.9.8-5.4zM96.4 222.3c-.6 1.6-1.3 4.2-1.3 4.2s-.3-2.7-.6-4.4l-1.5-7.3-3.3-1.2-4.9 14 3.1 1.1 2-5.7c.6-1.6 1.3-4.2 1.3-4.2s.3 2.7.6 4.4l1.6 7.4 3.3 1.2 4.9-14-3.1-1.1-2.1 5.6zM77.6 207.3l-1.3 2.5 7 3.7-1.7 3.1-5.9-3.2-1.3 2.4 6 3.2-1.4 2.6-6.9-3.6-1.3 2.5 9.9 5.2 6.9-13.2zM73.8 204.5l-2.8 1.2c-1.3.5-3 1.6-3 1.6s.5-2 .6-3.3l.3-3-3.3-2.4-.6 9.2-7.8 3.1 3 2.2 2.2-.9c1.2-.5 3-1.5 3-1.5s-.4 2-.6 3.3l-.2 2.3 3.2 2.3.5-8.4 8.6-3.3-3.1-2.4zM62.2 195.1l-2.4-2.4-8.4 8.6-3.2-3.1-2 2.1 8.8 8.5 2-2-3.2-3.1zM49.3 180l-6 2.2c-1.8.7-4.7 2.1-4.7 2.1s2.5-2.1 3.8-3.5l4.4-4.6-1.8-2.8-14.7 4.8 1.9 2.9 5.6-2c2.1-.7 5.3-2.3 5.3-2.3s-2.8 2.5-4.3 4l-4 4.2 1.8 2.7 5.5-2c2-.8 5.4-2.4 5.4-2.4s-2.8 2.2-4.3 3.8l-4.1 4.4 1.9 2.9 10.2-11.6-1.9-2.8zM42 167.4l-3 .3-2.2-4.9 2.2-2-1.4-3.3-11.5 10.9 1.4 3.2 15.8-1.1-1.3-3.1zm-8.4.8c-1.5.1-4 .7-4 .7s1.6-1.1 3.2-2.5l2.2-1.9 1.5 3.5-2.9.2zM36 150.6l-15.7-.9.9 3.3 7.5.2c1.7 0 4.5-.2 4.5-.2s-2.5 1.2-4 2.1l-6.3 4 .9 3.4 13.1-8.6-.9-3.3zM33 133.4l-2.9.5 1.1 7.8-3.4.5-1-6.7-2.6.4.9 6.6-2.9.4-1.1-7.6-2.8.3 1.5 11.1 14.7-2.1zM27.9 131.1v-1.6l-6.1-.6-3.7.2.1 3.2 3.8-.1zM29.737 128.566l3.298-.126.126 3.298-3.298.126zM33.2 120.1l-2.7-1.2.6-5.4 2.9-.6.4-3.6L19 113l-.4 3.5 14.2 7 .4-3.4zm-5.1-2.3-2.7-1.2c-1.4-.6-3.8-1.4-3.8-1.4s1.9-.1 4-.5l2.9-.6-.4 3.7zM37.3 98.2l-2.9-.7-1.6 6.7-11.6-2.9-.8 3.3 14.4 3.6zM41.7 87.2 39 86.1l-2.6 6.4L25.3 88 24 91.1l13.8 5.6zM35 76.6c2.6 1.6 4.5 0 6.6-2.1 1.6-1.6 2.5-2.5 3.6-1.8 1 .6.8 2 .1 3.1-1 1.6-2.2 2.1-3.7 1.4l-1.8 2.9c2.8 1.6 5.7.5 7.8-2.9 1.8-2.9 1.7-6-.9-7.6-2.7-1.7-4.7 0-6.6 1.9-1.7 1.7-2.6 2.7-3.6 2-.8-.5-.8-1.6-.1-2.8.8-1.3 1.8-1.7 2.9-1.2l1.8-2.8c-2.6-1.4-5.1-.2-6.8 2.6-1.7 2.8-1.9 5.7.7 7.3zM45.5 66.4c3.4 2.9 7.8 2.7 10.6-.6 1.3-1.6 1.9-3.1 1.8-4.7-.1-1.4-.7-2.8-1.8-3.9l-2.2 2.6c1.1 1.2 1.2 2.8.1 4.2-1.5 1.8-4 1.6-6.2-.2s-2.9-4.1-1.3-6.1c1.1-1.3 2.6-1.5 3.8-.7l2.2-2.6c-1.4-.9-3-1.3-4.6-.9-1.2.3-2.5 1.1-3.5 2.4-3 3.3-2.3 7.6 1.1 10.5zM63.8 57.4l-4.1-4.9 4.3-3.6 4.1 4.8 2.6-2.2-9.6-11.3-2.6 2.2 3.7 4.3-4.3 3.7-3.7-4.4-2.6 2.2 9.6 11.4zM78.4 46.9c3.8-2.4 4.5-6.7 2.1-10.5s-6.5-5.1-10.3-2.7c-3.8 2.4-4.5 6.7-2.1 10.5 2.3 3.8 6.5 5.1 10.3 2.7zm-6.7-10.8c2.2-1.4 4.4-.2 5.9 2.2 1.5 2.4 1.5 4.9-.6 6.2-2.2 1.4-4.4.2-5.9-2.1-1.6-2.4-1.6-4.9.6-6.3zM92.4 40c4.2-1.7 5.5-5.8 3.9-9.9-1.7-4.1-5.6-6.1-9.7-4.4-4.2 1.7-5.6 5.8-3.9 10 1.6 4 5.5 6 9.7 4.3zm-4.8-11.8c2.4-1 4.4.6 5.4 3.2 1.1 2.6.7 5.1-1.7 6-2.4 1-4.4-.5-5.5-3.1-1-2.6-.6-5.2 1.8-6.1zM110.7 34.2l-.7-2.8-6.7 1.6-2.8-11.6-3.3.8 3.5 14.4zM113.8 33.9c.2 1.2-.3 2-1.2 2.4l.2 1.4c1.8-.4 3.1-1.7 2.7-4.2l-.4-3-3.3.5.5 3.2 1.5-.3zM130.8 25c1.6-.6 2.4-1.6 2.4-3.1 0-1.2-.5-2.1-1.3-2.8-.8-.7-2-1-3.5-1l-7 .1.2 14.9 7.2-.1c1.6 0 2.8-.4 3.7-1.1.9-.8 1.4-1.8 1.4-3.3-.1-1.8-1.2-3.2-3.1-3.6zm-6.1-4.2h3.2c1.2 0 1.9.6 1.9 1.7s-.8 1.7-1.9 1.7h-3.2v-3.4zm5.2 8.9c-.4.3-.9.6-1.6.6h-3.5v-3.8h3.4c1.2 0 2.2.6 2.2 1.9 0 .5-.2 1-.5 1.3zM145.7 19.7l-2 2.9c-.9 1.3-2 3.3-2 3.3s-.5-2.3-1-3.7l-1.2-3.3-3.7-.5 3.8 9.9-.8 5.5 3.4.5.8-5.5 6.3-8.5-3.6-.6zM157.6 31.7c.6-1.6 1.3-4.2 1.3-4.2s.3 2.7.6 4.4l1.5 7.3 3.3 1.2 4.9-14-3.1-1.1-2 5.7c-.6 1.6-1.3 4.2-1.3 4.2s-.3-2.7-.6-4.4l-1.6-7.4-3.3-1.2-4.9 14 3.1 1.1 2.1-5.6zM176.4 46.7l1.3-2.5-7-3.7 1.7-3.1 5.9 3.2 1.3-2.4-6-3.2 1.4-2.6 6.9 3.6 1.3-2.5-9.9-5.2-6.9 13.2zM180.2 49.5l2.8-1.2c1.3-.5 3-1.6 3-1.6s-.5 2-.6 3.3l-.3 3 3.3 2.4.6-9.2 7.8-3.1-3-2.2-2.2.9c-1.2.5-3 1.5-3 1.5s.4-2 .6-3.3l.2-2.3-3.2-2.3-.5 8.4-8.6 3.3 3.1 2.4zM191.8 58.9l2.4 2.4 8.4-8.6 3.2 3.1 2-2.1-8.8-8.5-2 2 3.2 3.1zM204.7 74l6-2.2c1.8-.7 4.7-2.1 4.7-2.1s-2.5 2.1-3.8 3.5l-4.4 4.6 1.8 2.8 14.7-4.8-1.9-2.9-5.6 2c-2.1.7-5.3 2.3-5.3 2.3s2.8-2.5 4.3-4l4-4.2-1.8-2.7-5.5 2c-2 .8-5.4 2.4-5.4 2.4s2.8-2.2 4.3-3.8l4.1-4.4-1.9-2.9-10.2 11.6 1.9 2.8zM212 86.6l3-.3 2.2 4.9-2.2 2 1.4 3.3 11.5-10.9-1.4-3.2-15.8 1.1 1.3 3.1zm8.4-.8c1.5-.1 4-.7 4-.7s-1.6 1.1-3.2 2.5l-2.2 1.9-1.5-3.5 2.9-.2zM218 103.4l15.7.9-.9-3.3-7.5-.2c-1.7 0-4.5.2-4.5.2s2.5-1.2 4-2.1l6.3-4-.9-3.4-13.1 8.6.9 3.3zM221 120.6l2.9-.4-1.1-7.9 3.4-.5 1 6.7 2.6-.4-.9-6.6 2.9-.4 1.1 7.6 2.8-.3-1.5-11.1-14.7 2.1zM226.1 122.9v1.6l6.1.6 3.7-.2-.1-3.2-3.8.1zM220.84 122.167l3.298-.125.125 3.298-3.298.124z"/></svg>